#!OML:ASF H:\Dans Jumps\Project 1\Capture day 1\Session 1\subject.ASF
:FULLY-SPECIFIED
:DEGREES
323
root -0.177176 19.8941 -9.78884 7.54291 4.53041 -1.27075
lowerback 11.3708 0.75073 -2.43397
upperback 7.90313 0.792676 1.63923
thorax 1.83459 0.269696 2.9969
lowerneck -11.8205 -1.22312 -1.60362
upperneck 29.8978 -2.11744 2.64222
head 11.7623 -0.78498 0.981238
rclavicle 3.77691e-015 -4.77083e-015
rhumerus 1.20408 -4.19781 -92.7686
rradius 26.4376
rwrist 27.8881
rhand -24.0573 -20.7116
rfingers 7.12502
rthumb 2.42205 -50.6776
lclavicle 3.77691e-015 -4.77083e-015
lhumerus 4.81634 -15.5636 94.7585
lradius 31.3336
lwrist 25.728
lhand -27.137 -13.5397
lfingers 7.12502
lthumb -0.552362 16.4393
rfemur -29.887 -6.95317 21.1095
rtibia 26.8203
rfoot 16.3601 -5.32314
rtoes 16.8785
lfemur -30.1427 3.79136 -16.6818
ltibia 22.8042
lfoot 19.7361 -2.38968
ltoes -2.90462
324
root -0.179952 19.6837 -9.66154 7.06289 4.61529 -1.31642
lowerback 10.9239 0.75759 -2.43615
upperback 7.77159 0.810284 1.64337
thorax 1.93593 0.278522 3.00336
lowerneck -11.7028 -1.26112 -1.66841
upperneck 30.2306 -2.19159 2.73329
head 11.874 -0.812548 1.01999
rclavicle 1.21259e-014 -7.55382e-015
rhumerus 0.315561 -4.57076 -92.5844
rradius 26.3687
rwrist 28.1499
rhand -24.0755 -20.6996
rfingers 7.12502
rthumb 2.4044 -50.6658
lclavicle 1.21259e-014 -7.55382e-015
lhumerus 4.08665 -15.1696 94.8071
lradius 30.8346
lwrist 25.2397
lhand -26.8963 -13.3702
lfingers 7.12502
lthumb -0.319906 16.6093
rfemur -28.8527 -6.79342 20.922
rtibia 26.6975
rfoot 16.448 -4.94448
rtoes 16.5171
lfemur -29.3185 3.90443 -16.6012
ltibia 22.6964
lfoot 20.2868 -2.16163
ltoes -3.20653
325
root -0.182089 19.4608 -9.53224 6.5691 4.7348 -1.36716
lowerback 10.4788 0.752429 -2.41242
upperback 7.62681 0.814046 1.64978
thorax 2.02424 0.281746 2.99892
lowerneck -11.5781 -1.29854 -1.73007
upperneck 30.5041 -2.261 2.81157
head 11.9611 -0.839616 1.05382
rclavicle 3.52843e-015 6.95746e-015
rhumerus -0.619631 -4.94091 -92.366
rradius 26.32
rwrist 28.4176
rhand -24.0903 -20.6578
rfingers 7.12502
rthumb 2.39016 -50.6242
lclavicle 3.52843e-015 6.95746e-015
lhumerus 3.28763 -14.7699 94.827
lradius 30.4135
lwrist 24.8374
lhand -26.6157 -13.1879
lfingers 7.12502
lthumb -0.0489031 16.7918
rfemur -27.8277 -6.60779 20.7289
rtibia 26.7088
rfoot 16.5419 -4.51162
rtoes 16.2002
lfemur -28.5136 3.99388 -16.5187
ltibia 22.7965
lfoot 20.907 -1.95522
ltoes -3.25452
326
root -0.183223 19.2245 -9.40084 6.07452 4.87038 -1.41739
lowerback 10.0194 0.739319 -2.37074
upperback 7.46703 0.808633 1.65513
thorax 2.10612 0.281353 2.98411
lowerneck -11.4874 -1.33118 -1.76117
upperneck 30.7638 -2.31617 2.84221
head 12.0488 -0.862529 1.06625
rclavicle 1.95306e-014 1.40143e-014
rhumerus -1.60584 -5.28114 -92.1098
rradius 26.2948
rwrist 28.6834
rhand -24.0821 -20.5843
rfingers 7.12502
rthumb 2.39811 -50.5505
lclavicle 1.95306e-014 1.40143e-014
lhumerus 2.41597 -14.3754 94.8111
lradius 30.0739
lwrist 24.5338
lhand -26.3275 -13.0083
lfingers 7.12502
lthumb 0.229455 16.9713
rfemur -26.8386 -6.39888 20.5299
rtibia 26.9137
rfoot 16.1207 -3.8285
rtoes 15.7149
lfemur -27.761 4.05059 -16.4337
ltibia 23.1823
lfoot 21.4437 -2.45963
ltoes 3.75231
327
root -0.18342 18.9713 -9.26878 5.58907 5.00661 -1.48999
lowerback 9.54981 0.721745 -2.29209
upperback 7.29035 0.799498 1.66542
thorax 2.17709 0.280691 2.95385
lowerneck -11.409 -1.35931 -1.78789
upperneck 30.9878 -2.35782 2.84912
head 12.1245 -0.881985 1.07048
rclavicle 1.27222e-014 5.36719e-015
rhumerus -2.63075 -5.57908 -91.814
rradius 26.2773
rwrist 28.9614
rhand -24.0448 -20.4773
rfingers 7.12502
rthumb 2.43413 -50.4431
lclavicle 1.27222e-014 5.36719e-015
lhumerus 1.47606 -13.9923 94.7523
lradius 29.8123
lwrist 24.3158
lhand -26.0401 -12.875
lfingers 7.12502
lthumb 0.506987 17.1041
rfemur -25.915 -6.18523 20.3685
rtibia 27.3833
rfoot 14.7548 -2.71086
rtoes 14.9702
lfemur -27.0966 4.14441 -16.3385
ltibia 23.9331
lfoot 20.933 -3.44263
ltoes 10.2658
328
root -0.182715 18.7053 -9.13958 5.12186 5.14534 -1.58372
lowerback 9.08706 0.697822 -2.17353
upperback 7.09686 0.783544 1.68071
thorax 2.22826 0.278397 2.90656
lowerneck -11.3735 -1.38189 -1.80113
upperneck 31.2016 -2.38334 2.82089
head 12.2043 -0.896807 1.06096
rclavicle -1.15295e-014 6.26172e-015
rhumerus -3.67858 -5.83099 -91.4794
rradius 26.2607
rwrist 29.2672
rhand -23.9744 -20.3502
rfingers 7.12502
rthumb 2.50213 -50.3152
lclavicle -1.15295e-014 6.26172e-015
lhumerus 0.499272 -13.6225 94.6479
lradius 29.5889
lwrist 24.1532
lhand -25.7939 -12.8303
lfingers 7.12502
lthumb 0.744782 17.1481
rfemur -25.08 -5.99009 20.247
rtibia 28.1785
rfoot 12.2237 -1.28045
rtoes 13.6957
lfemur -26.5474 4.26309 -16.2263
ltibia 25.1016
lfoot 19.2568 -5.10936
ltoes 17.0224
329
root -0.18144 18.43 -9.01647 4.65755 5.3212 -1.70127
lowerback 8.6784 0.653213 -2.01069
upperback 6.89209 0.740947 1.70681
thorax 2.24074 0.264715 2.84666
lowerneck -11.3762 -1.39361 -1.81812
upperneck 31.403 -2.3853 2.77233
head 12.2865 -0.903993 1.04725
rclavicle -1.73937e-014 1.09332e-015
rhumerus -4.72138 -6.0462 -91.1111
rradius 26.2226
rwrist 29.6115
rhand -23.8573 -20.2038
rfingers 7.12502
rthumb 2.61514 -50.1675
lclavicle -1.73937e-014 1.09332e-015
lhumerus -0.473957 -13.2327 94.4998
lradius 29.3499
lwrist 23.9781
lhand -25.5997 -12.856
lfingers 7.12502
lthumb 0.932325 17.1217
rfemur -24.3515 -5.84382 20.168
rtibia 29.3292
rfoot 8.44195 0.369665
rtoes 11.9138
lfemur -26.1271 4.38829 -16.0908
ltibia 26.6816
lfoot 15.8131 -7.30287
ltoes 19.4383
330
root -0.179752 18.1514 -8.90253 4.18109 5.50062 -1.84301
lowerback 8.36205 0.601789 -1.80539
upperback 6.69377 0.689341 1.73881
thorax 2.21069 0.248195 2.7685
lowerneck -11.4352 -1.4027 -1.85811
upperneck 31.5988 -2.38134 2.73726
head 12.3789 -0.909286 1.04311
rclavicle -2.21645e-014 -1.77912e-014
rhumerus -5.7227 -6.276 -90.7209
rradius 26.1548
rwrist 30.0202
rhand -23.6987 -20.0591
rfingers 7.12502
rthumb 2.76837 -50.0209
lclavicle -2.21645e-014 -1.77912e-014
lhumerus -1.38609 -12.8069 94.3018
lradius 29.0478
lwrist 23.7204
lhand -25.4731 -12.9345
lfingers 7.12502
lthumb 1.05466 17.0427
rfemur -23.7703 -5.75242 20.1414
rtibia 30.8175
rfoot 3.73199 1.85324
rtoes 9.72884
lfemur -25.8337 4.50517 -15.9207
ltibia 28.5913
lfoot 10.4225 -8.98298
ltoes 15.685
